<?xml version="1.0" encoding="utf-8"?>
<!-- Generator: Adobe Illustrator 27.1.1, SVG Export Plug-In . SVG Version: 6.00 Build 0)  -->
<svg xmlns="http://www.w3.org/2000/svg">
	<path d="M20.65,57C0.74,57-2,42.93-2,27.73C-2,12.42,5.54,3.55,5.86,3.18l0.6-0.69h28.37l0.6,0.69c0.32,0.37,7.85,9.24,7.85,24.55
		C43.27,42.93,40.53,57,20.65,57z"/>
	<path style="fill: whitesmoke;" d="M33.91,4.49c0,0,7.36,8.5,7.36,23.24C41.27,42.47,39.04,55,20.65,55C2.23,55,0,42.47,0,27.73
		C0,12.99,7.37,4.49,7.37,4.49H33.91 M35.74,0.49h-1.83H7.37H5.54l-1.2,1.38C4.01,2.26-4,11.68-4,27.73C-4,37.88-4,59,20.65,59
		c24.62,0,24.62-21.12,24.62-31.27c0-16.05-8-25.46-8.34-25.86L35.74,0.49L35.74,0.49z"/>
	<rect x="15.35" y="-2" width="10.61" height="22.31"/>
	<path style="fill: whitesmoke;" d="M23.95,0v18.31h-6.61V0H23.95 M27.95-4h-4h-6.61h-4v4v18.31v4h4h6.61h4v-4V0V-4L27.95-4z"/>
</svg>
