<?xml version="1.0" encoding="UTF-8"?>
<svg id="can" xmlns="http://www.w3.org/2000/svg">
  <defs>
    <g id="0">
      <rect id="lid" x="28.5" width="262.32" height="25.28"/>
      <path id="body" d="M131.22,36.87s-27.4,35.83-31.6,43.2-3.16,10.53-3.16,21.07V450.89c0,13.7,3.9,31.16,13.69,35.83,19.9,9.47,12.53,25.28,33.71,25.28H368.14c21.18,0,13.81-15.81,33.71-25.28,9.79-4.68,13.69-22.13,13.69-35.83V101.14c0-10.54,1.07-13.7-3.16-21.07s-31.6-43.2-31.6-43.2" transform="translate(-96.34)"/>
      <path id="line" d="M349.63,36.87c-14.06,17.23-49.84,82.29-12.26,272.87,7.37,37.33,11.06,124.83-12.7,167.49H231c32.12-39.5,74.79-116.93,62.14-208.59C277,151.74,274.37,80.16,291,36.87Z" transform="translate(-96.34)" style="fill: whitesmoke"/>
    </g>
    <g id="1">
      <rect id="lid" x="28.5" width="262.32" height="25.28"/>
      <path id="body" d="M131.22,36.87s-27.4,35.83-31.6,43.2-3.16,10.53-3.16,21.07V450.89c0,13.7,3.9,31.16,13.69,35.83,19.9,9.47,12.53,25.28,33.71,25.28H368.14c21.18,0,13.81-15.81,33.71-25.28,9.79-4.68,13.69-22.13,13.69-35.83V101.14c0-10.54,1.07-13.7-3.16-21.07s-31.6-43.2-31.6-43.2" transform="translate(-96.34)"/>
      <path id="line" d="M349.63,36.87c-14.06,17.23-49.84,82.29-12.26,272.87,7.37,37.33,11.06,124.83-12.7,167.49H231c32.12-39.5,74.79-116.93,62.14-208.59C277,151.74,274.37,80.16,291,36.87Z" transform="translate(-96.34)" style="fill: whitesmoke"/>
    </g>
  </defs>
  <use href="#0"/>
</svg>